<svg xmlns="http://www.w3.org/2000/svg" xml:space="preserve" width="1500" height="1500" data-id="lg_8IGOCS8n3Dmwu4y3kd" data-version="1" viewBox="0 0 1500 1500"><path fill="#dadada" stroke="transparent" d="M0 0h1500v1500H0z"/><g data-padding="20"><g transform="translate(-573.792 -567.758)scale(1.70332)"><path fill="#fff" d="M985.966 714.417h.29v314.944c-.012 13.097-10.625 23.71-23.72 23.722h-370.7c-13.095-.012-23.708-10.625-23.72-23.722V714.417h.29q-.29-5.532-.29-11.144c0-115.46 93.598-209.07 209.07-209.07s209.07 93.61 209.07 209.07q0 5.6-.29 11.144"/><path fill="#1b1b1b" d="M966.2 729.338h.269v99.111c0 12.29-9.587 22.251-21.415 22.251H610.27c-11.827 0-21.414-9.962-21.414-22.25v-99.112h.269q-.256-5.187-.27-10.454c0-108.342 84.519-147.617 188.8-147.617s188.8 39.275 188.8 147.617q0 5.253-.268 10.453Z"/><path fill="#fff" d="m964.436 722.108-137.057-13.454q-6.293-.694-12.065-3.645l65.534-79.856c8.159-9.895 6.727-11.37-3.212-3.212l-79.856 65.534a34.7 34.7 0 0 1-3.602-12.065L780.68 538.353c-1.65-16.622-4.34-16.622-5.99 0L761.237 675.41a34.7 34.7 0 0 1-3.645 12.065l-79.856-65.534c-9.895-8.159-11.371-6.727-3.212 3.212l65.534 79.856a34.7 34.7 0 0 1-12.065 3.602l-137.057 13.497c-16.622 1.65-16.622 4.34 0 5.99l137.057 13.454q6.293.694 12.065 3.645l-65.534 79.856c-8.16 9.895-6.727 11.371 3.212 3.212l79.856-65.534q2.95 5.772 3.602 12.065l13.497 137.057c1.65 16.622 4.34 16.622 5.99 0l13.454-137.057q.737-6.293 3.602-12.065l79.856 65.534c9.982 8.16 11.414 6.683 3.255-3.212l-65.534-79.856a34.7 34.7 0 0 1 12.065-3.602l137.057-13.497c16.622-1.65 16.622-4.34 0-5.99"/><path fill="none" stroke="#1b1b1b" stroke-width="1.5" d="M908.642 657.969h.26v281.2c-.01 11.693-9.487 21.169-21.18 21.18h-330.98c-11.693-.011-21.169-9.487-21.18-21.18v-281.2h.26q-.26-4.94-.26-9.95c0-103.09 83.57-186.67 186.67-186.67s186.67 83.58 186.67 186.67q0 5-.26 9.95" paint-order="stroke" transform="matrix(1.06 0 0 1.07 13.03 12.605)"/><rect width="376.535" height="160.415" x="379.428" y="413.436" fill="none" rx="0" ry="0" transform="translate(210.41 451.59)"/><path fill="#1b1b1b" d="M690.066 905.873q0-12.89 6.61-20.55 6.6-7.66 16.45-7.66 23.06 0 23.06 28.21 0 12.98-6.57 20.44-6.56 7.47-16.49 7.47-23.06 0-23.06-27.91m5.32-.15q0 26.49 17.74 26.49 7.66 0 12.7-7.03 5.04-7.04 5.04-19.46 0-26.5-17.74-26.5-7.58 0-12.66 7.11-5.08 7.12-5.08 19.39m65.49 46.81-16.49.08.08-1.09 4.06-.55q.71-.08.71-1.09v-53.31q-.16-.62-.47-.62l-4.77-.16.08-1.09q4.92-.71 6.72-.71t2.58.9.94 2q4.92-3.6 10.47-3.6 5.32 0 10.01 3.28 2.5 1.8 4.02 5.63t1.52 9.3q0 10.4-5.15 15.63-5.87 5.94-15.17 5.94-2.73 0-5.7-.39v18.29l6.64.39q-.08 1.09-.08 1.17m-6.56-54.08v32.59q2.26.55 4.92.55 7.66 0 11.84-5.2t4.18-14.5q0-10.63-4.22-14.3-3.28-2.89-7.34-2.89-4.07 0-9.38 3.75m38.15 16.65q0 16.88 13.13 16.88 3.44 0 7.35-.74 3.9-.75 5-1.37l.54.78q-1.79 1.17-5.9 1.95-4.1.78-7.5.78t-6.1-.7q-2.69-.7-5.51-2.5-2.81-1.8-4.45-5.63t-1.64-9.38q0-10.31 5.31-15.78 5.55-5.71 12.9-5.71t11.21 4.07q3.87 4.06 3.87 11.41 0 1.56-.23 3.36h-27.9q-.08.86-.08 2.58m23.6-6.49q0-5.86-2.58-9.58-2.58-3.71-7.03-3.71-5.79 0-9.77 5.08-3.21 3.99-3.99 10.63h23.29q.08-.86.08-2.42m27.35 24.46-15.71.08.08-1.09 4.06-.55q.7-.08.7-1.1v-33.84q-.15-.62-.47-.62l-4.76-.16.07-1.09q4.93-.71 6.65-.71 3.12 0 3.51 2.74h.08v1.64q6.41-4.38 12.27-4.61 5.71 0 8.68 2.27 1.33 1.01 2.38 3.16 1.06 2.15 1.06 5.12v27.2l5.86.39q0 .08-.08 1.17l-15.63.08q0-.7.08-1.09l4.06-.55q.63-.08.63-1.1v-24.15q0-3.12-.82-5.31t-1.84-3.2q-1.02-1.02-2.5-1.57-1.72-.62-3.6-.62-4.69.07-10.55 3.67v32.28l5.86.39q0 .08-.07 1.17m-241.58 17.79 15.63-.08q0 .08.08 1.17l-5.32.47v29.55q0 13.6 4.77 18.05 2.27 2.19 4.61 3.01 2.35.82 5.51.82 3.17 0 5.75-.86t5-3.13q5.16-4.69 5.16-17.89v-28.3q-.16-1.01-.94-1.09l-5.63-.55q-.08-.47-.08-1.17l14.85-.08q0 .08.08 1.17l-6.49.71v29.38q0 23.76-17.74 23.76-4.3 0-7.54-.89-3.24-.9-6.29-3.33-6.33-4.92-6.33-19.54v-28.6q-.31-.94-.94-1.02l-4.06-.39q-.08-.47-.08-1.17m73 54.62-15.71.08.07-1.09 4.07-.55q.7-.08.7-1.1v-33.84q-.15-.62-.47-.62l-4.76-.16.07-1.09q4.93-.71 6.65-.71 3.12 0 3.51 2.74h.08v1.64q6.41-4.38 12.27-4.61 5.71 0 8.68 2.27 1.33 1.01 2.38 3.16 1.06 2.15 1.06 5.12v27.2l5.86.39q0 .08-.08 1.17l-15.63.08q0-.7.08-1.09l4.06-.55q.63-.08.63-1.1v-24.15q0-3.12-.82-5.31t-1.84-3.21q-1.02-1.01-2.5-1.56-1.72-.62-3.6-.62-4.69.07-10.55 3.67v32.28l5.86.39q0 .08-.07 1.17m44.15-35.86v34.31l5.87.39q0 .08-.08 1.17l-15.63.08q0-.7.07-1.09l4.07-.55q.47 0 .62-.71v-34.31q-.15-.54-.46-.54l-4.69-.16.07-1.09q4.22-.71 6.41-.71t2.97 1.02.78 2.19m-2.65-13.68q-1.57 0-2.43-.98-.86-.97-.86-2.58 0-1.6.9-2.57.9-.98 2.46-.98 1.57 0 2.55.98.97.97.97 2.65t-1.01 2.58q-1.02.9-2.58.9m45.41 10.55 14.38-.08q0 .08.07 1.18l-6.25.7-15 37.2h-4.69l-13.6-36.58q-.47-.7-1.17-.86l-4.07-.39-.08-1.17 16.49-.08q0 .08.08 1.18l-5.78.39 12.27 35.87 12.82-34.62q.23-.39-.28-.75-.51-.35-1.05-.43l-4.07-.39Zm23.76 21.03q0 16.88 13.13 16.88 3.43 0 7.34-.75 3.91-.74 5-1.36l.55.78q-1.8 1.17-5.9 1.95t-7.5.78-6.1-.7-5.51-2.5-4.45-5.63q-1.65-3.83-1.65-9.38 0-10.31 5.32-15.78 5.55-5.71 12.9-5.71 7.34 0 11.21 4.06 3.87 4.07 3.87 11.42 0 1.56-.23 3.36h-27.91q-.07.86-.07 2.58m23.6-6.49q0-5.86-2.58-9.58-2.58-3.71-7.03-3.71-5.79 0-9.77 5.08-3.21 3.99-3.99 10.63h23.29q.08-.86.08-2.42m21.49-11.41v6.25q6.18-9.07 12.12-9.22h.93l4.38.54-2.03 4.69q-1.49-1.48-3.83-1.48-5.71.08-11.57 7.58v25.95l6.64.39q0 .08-.07 1.17l-16.42.08q0-.7.08-1.09l4.07-.55q.62-.08.62-1.1v-33.92q-.16-.54-.47-.54l-4.69-.16.08-1.09q4.22-.71 6.41-.71t2.97 1.02.78 2.19m34.79 34.93q.47 0 .94-.07 4.06-.08 6.8-2.54 2.73-2.47 2.73-7.23 0-4.69-7.34-6.8-3.05-.86-6.1-1.88t-5.2-3.2q-2.15-2.19-2.15-5.71 0-5 3.83-8.01t9.7-3.01q4.37 0 8.83 1.56l1.4.55v8.99l-1.48.55-.31-6.65q-4.54-3.59-7.58-3.59-4.3 0-6.8 2.54-2.51 2.54-2.51 6.76 0 2.42 2.15 3.91 2.15 1.48 5.2 2.34t6.1 1.92q3.05 1.05 5.19 3.43 2.15 2.39 2.15 6.22 0 5.16-3.86 8.17-3.87 3-10.99 3-7.11 0-11.8-3.36v-8.98l1.41-.55.39 6.64q1.09 2.03 3.95 3.52 2.85 1.48 5.35 1.48m33.6-34.93v34.31l5.86.39q0 .08-.08 1.17l-15.63.08q0-.7.08-1.09l4.06-.55q.47 0 .63-.71v-34.31q-.16-.54-.47-.54l-4.69-.16.08-1.09q4.22-.71 6.41-.71 2.18 0 2.97 1.02.78 1.02.78 2.19m-2.66-13.68q-1.56 0-2.42-.98-.86-.97-.86-2.58 0-1.6.9-2.57.9-.98 2.46-.98t2.54.98q.98.97.98 2.65t-1.02 2.58-2.58.9m33.37 48.06 3.05-.16.24.78q-.08 0-1.1.24-2.34.54-5.23.54-2.66-.15-4.85-.9-2.19-.74-4.06-3.12-1.88-2.39-1.88-6.14v-27.43h-3.99l.63-.63 3.44-.7.62-7.5 4.38-.39v7.81h9.46v1.41h-9.46v26.1q0 5.94 2.5 8.02 2.5 2.07 6.25 2.07m36.19 20.95-16.49.08-.16-1.09 7.27-.94q.55-.08.7-1.1l2.58-16.41h-2.58l-13.05-36.34-.08-.08q-.39-.94-1.25-1.09l-3.51-.32q-.08-.47-.08-1.17l16.41-.08q0 .08.08 1.18l-6.1.46 11.57 35.41 14.54-34.39q.23-.47-.28-.78-.5-.31-1.05-.39l-3.44-.24q-.08-.47-.08-1.17l14.3-.08q0 .08.08 1.18l-6.95.7-16.42 37.2-2.97 17.9 6.8.39q.16 1.09.16 1.17"/><rect width="79.868" height="24.86" x="527.762" y="481.213" fill="none" rx="0" ry="0" transform="translate(209.82 45.4)"/><path fill="#1b1b1b" d="M744.266 536.643q1.51 0 2 1.27.17.41.17.88 0 1.08-1.03 1.31-.54.11-1.53.09l-2.28-.06q.11-2.48 1.62-3.23.49-.26 1.05-.26m3.75 6.76-.54-.2q-.76 1.64-2.43 1.86-.22.02-.41.02-2.26 0-2.85-2.69-.17-.76-.19-1.66l2.58.04q2.63.04 3.38-.49.59-.43.59-1.23 0-1.46-1.49-2.33-1.05-.62-2.43-.62-2.69 0-3.86 2.24-.6 1.16-.6 2.63 0 2.66 1.92 3.96 1.14.75 2.6.75 2.33 0 3.42-1.68.18-.3.31-.6m4.96 1.69q1.48 0 2-.91.19-.32.19-.71 0-.9-1.31-1.55-.28-.15-.92-.43-1.77-.73-2.35-1.37-.62-.71-.62-1.66 0-1.49 1.63-2.09.75-.28 1.64-.28 1.42 0 2.45.6 0-.62.3-.71.13-.02.28-.02v2.69h-.56q-.04-1.98-2.19-2-1.62 0-2 .95-.11.26-.11.54 0 .92 1.33 1.57.3.15.95.41 1.74.71 2.32 1.35.63.69.63 1.64 0 1.74-1.85 2.32-.71.24-1.55.24-1.55-.02-2.69-.77 0 .55-.28.64-.13.02-.3.02v-3.27h.6q.04 2.78 2.41 2.8m4.96-8.77v.53h1.51v6.07q.15 2.7 2.47 2.78 1.98 0 2.48-2.43v-.04l-.58-.11q-.54 1.79-1.57 1.94-1.17-.05-1.19-1.66v-6.55h3.34v-.53h-3.34v-2.5l-1.61.45v2.05Zm9.84 8.14q0-.71-.65-1.01-.21-.1-.45-.1-.71 0-.99.64-.11.24-.11.47 0 .69.63.99.23.11.47.11.69 0 .99-.62.11-.24.11-.48m11.86-.5h-4.87q0-.63 1.55-1.62.28-.17.89-.56 2.41-1.44 3.29-2.41 1.1-1.18 1.1-2.45 0-2-2-2.76-.89-.32-1.98-.32-1.98 0-3.13 1.05-.77.74-.77 1.73 0 .88.65 1.09.15.05.28.05.84 0 1.03-.86.04-.22.09-.65.12-1.16.55-1.53.39-.32 1.1-.32 1.92 0 2.28 1.76.07.35.07.74 0 2-1.83 3.46-.19.15-1.94 1.34-1.63 1.1-2.06 2.13-.24.58-.24 1.2v.43h8.2l.04-3.61h-.41l-.34 1.16q-.24.75-.84.9-.26.05-.71.05m9.19-10.12q-2.3 0-3.64 1.87-1.09 1.57-1.09 3.96 0 3.64 2.08 5.19 1.12.82 2.57.82 2.3 0 3.61-1.94 1.08-1.59 1.08-4 0-3.83-2.26-5.25-1.03-.65-2.35-.65m-.02 11.28q-1.94 0-2.52-2.35-.3-1.2-.3-3.03 0-4.46 1.85-5.17.43-.17.95-.17 1.7 0 2.3 1.7.43 1.25.43 3.57 0 4.83-2.06 5.36-.3.09-.65.09m12.15-1.16h-4.86q0-.63 1.55-1.62.28-.17.88-.56 2.41-1.44 3.29-2.41 1.1-1.18 1.1-2.45 0-2-2-2.76-.88-.32-1.98-.32-1.98 0-3.12 1.05-.78.74-.78 1.73 0 .88.65 1.09.15.05.28.05.84 0 1.03-.86.05-.22.09-.65.13-1.16.56-1.53.39-.32 1.1-.32 1.91 0 2.28 1.76.06.35.06.74 0 2-1.83 3.46-.19.15-1.93 1.34-1.64 1.1-2.07 2.13-.24.58-.24 1.2v.43h8.2l.05-3.61h-.41l-.35 1.16q-.23.75-.84.9-.25.05-.71.05m7.4 3h5.92q0-.52-.28-.56-.11-.02-.24-.02h-1.46v-2.78h1.98v-.64h-1.98v-4.22h-.43l-.22.82q-.17.71-.49.81-.15.07-.37.07h-.13v2.5l-5.04-.03q6.74-5.57 6.76-8.07-.04-.99-.97-1.01-.68 0-1.07.82-.13.26-.37.92-.9 2.48-2.19 4.18-1.25 1.64-3.1 3.16l.13.65 5.85.02v2.8h-2.3Z"/><path fill="none" stroke="#1b1b1b" stroke-width=".165" d="m712.335 535.052 1.488 5.526a5.65 5.65 0 0 0 3.987 3.987l5.526 1.488-5.526 1.488a5.65 5.65 0 0 0-3.987 3.987l-1.488 5.526-1.488-5.526a5.65 5.65 0 0 0-3.987-3.987l-5.525-1.489 5.526-1.488a5.65 5.65 0 0 0 3.987-3.987Zm126.98 0 1.488 5.526a5.65 5.65 0 0 0 3.987 3.987l5.526 1.488-5.526 1.488a5.65 5.65 0 0 0-3.987 3.987l-1.488 5.526-1.488-5.526a5.65 5.65 0 0 0-3.987-3.987l-5.525-1.489 5.526-1.488a5.65 5.65 0 0 0 3.987-3.987Z" paint-order="stroke"/></g><path fill="transparent" stroke="transparent" stroke-width="1.789" d="M376.118 250h747.764v1000H376.118z"/></g></svg>